<svg width="16" height="15" viewBox="0 0 16 15" fill="none" xmlns="http://www.w3.org/2000/svg">
<g clip-path="url(#clip0_486_3560)">
<path d="M14.8016 11.0085L12.7083 8.91519C11.9607 8.16759 10.6897 8.46666 10.3907 9.43852C10.1664 10.1114 9.41882 10.4852 8.74597 10.3356C7.25076 9.96184 5.23223 8.01807 4.85843 6.4481C4.63414 5.77522 5.08271 5.02762 5.75555 4.80336C6.72744 4.50432 7.02648 3.23339 6.27888 2.48579L4.18558 0.392493C3.5875 -0.130831 2.69037 -0.130831 2.16705 0.392493L0.746597 1.81294C-0.673853 3.30815 0.896118 7.27046 4.40986 10.7842C7.92361 14.298 11.8859 15.9427 13.3811 14.4475L14.8016 13.027C15.3249 12.4289 15.3249 11.5318 14.8016 11.0085Z" fill="white"/>
</g>
<defs>
<clipPath id="clip0_486_3560">
<rect width="15" height="15" fill="white" transform="translate(0.209961)"/>
</clipPath>
</defs>
</svg>
