<svg width="16" height="15" viewBox="0 0 16 15" fill="none" xmlns="http://www.w3.org/2000/svg">
<path d="M7.70997 0C4.95302 0 2.70996 2.24306 2.70996 5.00001C2.70996 5.82765 2.91688 6.64825 3.31025 7.3761L7.43654 14.8389C7.49148 14.9384 7.59615 15 7.70997 15C7.82379 15 7.92847 14.9384 7.9834 14.8389L12.1112 7.37364C12.5031 6.64825 12.71 5.82762 12.71 4.99998C12.71 2.24306 10.4669 0 7.70997 0ZM7.70997 7.5C6.33149 7.5 5.20998 6.37849 5.20998 5.00001C5.20998 3.62153 6.33149 2.50002 7.70997 2.50002C9.08845 2.50002 10.21 3.62153 10.21 5.00001C10.21 6.37849 9.08845 7.5 7.70997 7.5Z" fill="white"/>
</svg>
